<?xml version="1.0" encoding="utf-8"?>
<!-- Generator: Adobe Illustrator 16.0.0, SVG Export Plug-In . SVG Version: 6.00 Build 0)  -->
<!DOCTYPE svg PUBLIC "-//W3C//DTD SVG 1.1//EN" "http://www.w3.org/Graphics/SVG/1.1/DTD/svg11.dtd">
<svg version="1.1" id="Layer_1" xmlns="http://www.w3.org/2000/svg" xmlns:xlink="http://www.w3.org/1999/xlink" x="0px" y="0px"
	 width="256px" height="256px" viewBox="0 0 256 256" enable-background="new 0 0 256 256" xml:space="preserve">
<g>
	<path fill="#4B80C2" d="M39.054,63.336c0-6.053,2.115-11.198,6.358-15.442c4.237-4.236,9.381-6.358,15.442-6.358h130.8
		c6.053,0,11.197,2.122,15.441,6.358c4.236,4.244,6.359,9.389,6.359,15.442v65.4c0,3.03-0.611,5.904-1.816,8.629
		c-1.215,2.726-2.727,4.996-4.543,6.812c-1.816,1.817-4.088,3.336-6.812,4.542c-2.725,1.214-5.605,1.816-8.629,1.816h-130.8
		c-3.938,0-7.572-0.979-10.9-2.952c-3.335-1.966-5.982-4.612-7.948-7.947c-1.973-3.328-2.952-6.962-2.952-10.9V63.336z
		 M39.054,161.437h174.401v32.7c0,3.938-0.986,7.571-2.953,10.899c-1.973,3.336-4.619,5.982-7.947,7.948
		c-3.336,1.973-6.969,2.952-10.9,2.952h-130.8c-6.061,0-11.205-2.115-15.442-6.358c-4.244-4.236-6.358-9.382-6.358-15.441V161.437z
		 M58.583,115.565c-2.122,2.122-3.179,4.698-3.179,7.721c0,3.03,1.058,5.606,3.179,7.722c2.115,2.121,4.691,3.179,7.721,3.179
		c3.023,0,5.599-1.058,7.721-3.179c2.115-2.115,3.179-4.691,3.179-7.722c0-3.023-1.064-5.599-3.179-7.721
		c-2.122-2.115-4.698-3.179-7.721-3.179C63.274,112.386,60.698,113.451,58.583,115.565z M58.583,180.966
		c-2.122,2.121-3.179,4.697-3.179,7.721c0,3.03,1.058,5.605,3.179,7.721c2.115,2.122,4.691,3.179,7.721,3.179
		c3.023,0,5.599-1.057,7.721-3.179c2.115-2.115,3.179-4.69,3.179-7.721c0-3.023-1.064-5.6-3.179-7.721
		c-2.122-2.115-4.698-3.18-7.721-3.18C63.274,177.786,60.698,178.851,58.583,180.966z M60.854,63.336v32.7h130.8v-32.7H60.854z"/>
</g>
</svg>
